<svg width="31" height="26" viewBox="0 0 31 26" fill="none" xmlns="http://www.w3.org/2000/svg">
<path fill-rule="evenodd" clip-rule="evenodd" d="M0.388559 14.0179C0.139752 13.7478 -5.51562e-07 13.3817 -5.68248e-07 13C-5.84934e-07 12.6183 0.139752 12.2522 0.388559 11.9821L11.0175 0.458462C11.1392 0.316939 11.2858 0.203428 11.4488 0.124699C11.6118 0.0459695 11.7877 0.00363734 11.9661 0.000224834C12.1445 -0.00318767 12.3217 0.0323894 12.4872 0.104837C12.6526 0.177284 12.8029 0.285116 12.929 0.421899C13.0552 0.558682 13.1547 0.721615 13.2215 0.900976C13.2883 1.08034 13.3211 1.27245 13.318 1.46586C13.3148 1.65927 13.2758 1.85002 13.2032 2.02671C13.1306 2.2034 13.0259 2.36243 12.8953 2.4943L4.53386 11.5595L29.6714 11.5595C30.0238 11.5595 30.3617 11.7113 30.6109 11.9814C30.86 12.2516 31 12.618 31 13C31 13.382 30.86 13.7484 30.6109 14.0186C30.3617 14.2887 30.0238 14.4405 29.6714 14.4405L4.53386 14.4405L12.8953 23.5057C13.0259 23.6376 13.1306 23.7966 13.2032 23.9733C13.2758 24.15 13.3148 24.3407 13.318 24.5341C13.3211 24.7275 13.2883 24.9197 13.2215 25.099C13.1547 25.2784 13.0552 25.4413 12.929 25.5781C12.8029 25.7149 12.6526 25.8227 12.4872 25.8952C12.3217 25.9676 12.1445 26.0032 11.9661 25.9998C11.7877 25.9964 11.6118 25.954 11.4488 25.8753C11.2858 25.7966 11.1392 25.6831 11.0175 25.5415L0.388559 14.0179Z" fill="black"/>
</svg>
