<svg width="70" height="84" viewBox="0 0 70 84" fill="none" xmlns="http://www.w3.org/2000/svg">
<path d="M25.3251 5.7347L20.9863 0H30.9314L25.3251 5.7347ZM39.0665 0L44.5716 5.62353L48.7656 0H39.0666H39.0665ZM41.2864 6.81294L34.9999 0.389617L28.7034 6.82098H41.2964L41.2864 6.81294ZM55.9498 6.81294L51.7502 1.29843L47.6413 6.82098H55.9598L55.9498 6.81294ZM18.0478 1.37313L14.0116 6.82509H22.1829L18.0478 1.37313ZM27.2019 9.99511L34.9999 31.4233L42.804 9.99511H27.1958H27.2019ZM14.1327 9.99511L30.2775 27.6918L23.8197 9.99511H14.1327ZM55.8793 9.99511H46.1925L39.7484 27.6918L55.8793 9.99511ZM52.4041 18.5992L47.2135 24.2894C51.811 26.569 55.6813 30.0874 58.3885 34.4486C61.0957 38.8098 62.5324 43.8406 62.5369 48.9745C62.533 64.1631 50.182 76.5288 34.9999 76.5288C19.8178 76.5288 7.46683 64.1712 7.46683 48.9804C7.47132 43.8465 8.90807 38.8157 11.6153 34.4545C14.3226 30.0933 18.1929 26.5749 22.7904 24.2953L17.5998 18.6051C12.2557 21.671 7.81444 26.0931 4.72434 31.4253C1.63424 36.7574 0.00463167 42.8108 1.52411e-09 48.9745C-0.000178622 68.2823 15.7005 84 34.9999 84C54.2991 84 70 68.2904 70 48.9804C69.9972 42.8145 68.3683 36.7585 65.2777 31.4241C62.1871 26.0897 57.7443 21.6658 52.3981 18.5992H52.4041Z" fill="#FFD6BC"/>
</svg>
