<svg width="24" height="24" viewBox="0 0 24 24" fill="none" xmlns="http://www.w3.org/2000/svg">
<path d="M22.6453 6L23.5915 5.02667C23.8442 4.76676 23.9862 4.41424 23.9862 4.04667C23.9862 3.6791 23.8442 3.32658 23.5915 3.06667C23.3389 2.80676 22.9962 2.66074 22.6388 2.66074C22.2815 2.66074 21.9388 2.80676 21.6861 3.06667L20.7398 4L19.7936 3.02667C19.5357 2.76676 19.1881 2.62285 18.8271 2.6266C18.4661 2.63035 18.1213 2.78145 17.8687 3.04667C17.616 3.31188 17.4761 3.66949 17.4797 4.04081C17.4834 4.41213 17.6303 4.76676 17.8881 5.02667L18.8344 6L17.8881 6.97333C17.6354 7.23325 17.4935 7.58576 17.4935 7.95333C17.4935 8.32091 17.6354 8.67342 17.8881 8.93333C18.1408 9.19325 18.4835 9.33926 18.8408 9.33926C19.1982 9.33926 19.5409 9.19325 19.7936 8.93333L20.7398 8L21.6861 8.97333C21.9439 9.23325 22.2916 9.37716 22.6526 9.37341C23.0136 9.36965 23.3583 9.21855 23.611 8.95333C23.8637 8.68812 24.0036 8.33051 23.9999 7.95919C23.9963 7.58787 23.8494 7.23325 23.5915 6.97333L22.6453 6ZM9.07367 10.6667C10.0992 10.6667 11.1016 10.3539 11.9543 9.76784C12.8069 9.1818 13.4715 8.34885 13.8639 7.37431C14.2564 6.39977 14.3591 5.32742 14.159 4.29285C13.9589 3.25829 13.4651 2.30798 12.74 1.5621C12.0149 0.816219 11.091 0.308269 10.0852 0.102481C9.07942 -0.103307 8.0369 0.00231083 7.08948 0.405978C6.14205 0.809645 5.33227 1.49323 4.76254 2.37029C4.19281 3.24736 3.88872 4.2785 3.88872 5.33334C3.88872 6.74782 4.43499 8.10438 5.40735 9.10457C6.37972 10.1048 7.69854 10.6667 9.07367 10.6667ZM16.8511 24C17.1949 24 17.5246 23.8595 17.7677 23.6095C18.0108 23.3594 18.1473 23.0203 18.1473 22.6667C18.1473 20.1913 17.1914 17.8173 15.4897 16.067C13.7881 14.3167 11.4802 13.3333 9.07367 13.3333C6.66718 13.3333 4.35926 14.3167 2.65762 16.067C0.955973 17.8173 3.58595e-08 20.1913 0 22.6667C0 23.0203 0.136568 23.3594 0.37966 23.6095C0.622751 23.8595 0.952455 24 1.29624 24H16.8511Z" fill="black"/>
</svg>
