<svg width="24" height="24" viewBox="0 0 24 24" fill="none" xmlns="http://www.w3.org/2000/svg">
<path d="M23.9358 23.2501C21.9525 19.6803 18.7734 17.243 15.0902 16.3643C16.8404 15.6177 18.2873 14.2616 19.1838 12.5276C20.0802 10.7937 20.3705 8.78941 20.0051 6.85732C19.6396 4.92523 18.6412 3.18518 17.1803 1.93447C15.7193 0.683765 13.8866 0 11.9952 0C10.1038 0 8.2711 0.683765 6.81019 1.93447C5.34927 3.18518 4.35081 4.92523 3.98539 6.85732C3.61998 8.78941 3.91028 10.7937 4.8067 12.5276C5.70312 14.2616 7.15004 15.6177 8.90025 16.3643C5.22181 17.2392 2.03799 19.6803 0.0547048 23.2501C-0.00270633 23.3643 -0.0154928 23.4973 0.0190166 23.6211C0.053526 23.7449 0.132662 23.8501 0.239894 23.9146C0.347127 23.9792 0.474161 23.9981 0.594463 23.9674C0.714765 23.9367 0.819028 23.8588 0.885475 23.75C3.23132 19.5241 7.38757 17.0005 11.9952 17.0005C16.6029 17.0005 20.7591 19.5241 23.105 23.75C23.1471 23.8259 23.2076 23.889 23.2805 23.9329C23.3534 23.9768 23.4362 23.9999 23.5204 24C23.6048 24.0003 23.6877 23.977 23.7605 23.9325C23.8706 23.8661 23.9508 23.757 23.9837 23.629C24.0166 23.5011 23.9993 23.3648 23.9358 23.2501ZM4.79202 8.5011C4.79202 7.01785 5.21448 5.56791 6.00598 4.33463C6.79748 3.10134 7.92246 2.14012 9.23868 1.5725C10.5549 1.00489 12.0032 0.856372 13.4005 1.14574C14.7978 1.43511 16.0813 2.14936 17.0887 3.19818C18.0961 4.247 18.7821 5.58328 19.06 7.03803C19.338 8.49278 19.1953 10.0007 18.6501 11.371C18.1049 12.7414 17.1817 13.9126 15.9971 14.7367C14.8126 15.5607 13.4199 16.0006 11.9952 16.0006C10.0855 15.9983 8.25463 15.2074 6.90424 13.8015C5.55386 12.3955 4.79424 10.4894 4.79202 8.5011Z" fill="black"/>
</svg>
