<svg width="19" height="24" viewBox="0 0 19 24" fill="none" xmlns="http://www.w3.org/2000/svg">
<path d="M9.07367 10.6667C10.0992 10.6667 11.1016 10.3539 11.9543 9.76784C12.8069 9.18181 13.4715 8.34885 13.8639 7.37431C14.2564 6.39978 14.3591 5.32742 14.159 4.29285C13.9589 3.25829 13.4651 2.30798 12.74 1.5621C12.0149 0.816219 11.091 0.308269 10.0852 0.102481C9.07942 -0.103307 8.0369 0.00231084 7.08947 0.405978C6.14205 0.809646 5.33227 1.49323 4.76254 2.37029C4.19281 3.24736 3.88872 4.2785 3.88872 5.33334C3.88872 6.74782 4.43499 8.10438 5.40735 9.10457C6.37972 10.1048 7.69854 10.6667 9.07367 10.6667ZM16.8511 24C17.1949 24 17.5246 23.8595 17.7677 23.6095C18.0108 23.3594 18.1473 23.0203 18.1473 22.6667C18.1473 20.1913 17.1914 17.8173 15.4897 16.067C13.7881 14.3167 11.4802 13.3333 9.07367 13.3333C6.66718 13.3333 4.35926 14.3167 2.65762 16.067C0.955973 17.8173 3.58595e-08 20.1913 0 22.6667C0 23.0203 0.136568 23.3594 0.37966 23.6095C0.622751 23.8595 0.952455 24 1.29624 24H16.8511Z" fill="black"/>
</svg>
