<svg width="24" height="24" viewBox="0 0 24 24" fill="none" xmlns="http://www.w3.org/2000/svg">
<path d="M20.2282 15.3335L15.8897 13.3892C15.6932 13.305 15.4787 13.2711 15.2657 13.2907C15.0528 13.3102 14.848 13.3826 14.6701 13.5012C14.6521 13.5129 14.6349 13.5258 14.6187 13.5398L12.3511 15.4685C12.3276 15.4813 12.3014 15.4885 12.2746 15.4894C12.2479 15.4904 12.2212 15.4851 12.1969 15.474C10.7394 14.7705 9.22951 13.2698 8.52326 11.8325C8.5115 11.8085 8.50538 11.7821 8.50538 11.7554C8.50538 11.7286 8.5115 11.7022 8.52326 11.6782L10.4583 9.38222C10.4722 9.36525 10.4851 9.34746 10.4969 9.32895C10.6139 9.15033 10.6846 8.94538 10.7025 8.73261C10.7205 8.51984 10.6852 8.30594 10.5998 8.11024L8.66928 3.77906C8.55965 3.52338 8.37006 3.31016 8.12895 3.17139C7.88785 3.03262 7.60824 2.9758 7.3321 3.00944C6.13196 3.16722 5.03033 3.75659 4.23307 4.66743C3.43582 5.57826 2.99749 6.74823 3.00001 7.9587C3.00001 15.1498 8.85021 21 16.0413 21C17.2517 21.0023 18.4215 20.5639 19.3323 19.7667C20.2431 18.9695 20.8325 17.868 20.9905 16.6679C21.0241 16.393 20.968 16.1147 20.8307 15.8743C20.6933 15.6338 20.4821 15.4442 20.2282 15.3335ZM16.0413 19.8979C9.45819 19.8979 4.10209 14.5418 4.10209 7.9587C4.09902 7.01636 4.43914 6.10513 5.05892 5.39527C5.67869 4.68541 6.53571 4.22548 7.46985 4.10142H7.49098C7.52799 4.10211 7.56393 4.11396 7.59408 4.13543C7.62423 4.1569 7.6472 4.18698 7.65996 4.22173L9.59778 8.54831C9.60883 8.57237 9.61456 8.59853 9.61456 8.625C9.61456 8.65147 9.60883 8.67763 9.59778 8.70169L7.65905 11.0032C7.64465 11.0197 7.63145 11.0372 7.61955 11.0555C7.49824 11.2407 7.4268 11.4541 7.41216 11.6751C7.39752 11.896 7.44017 12.1169 7.53598 12.3165C8.3506 13.9843 10.0313 15.6521 11.7174 16.4668C11.9182 16.562 12.1402 16.6037 12.3619 16.5876C12.5835 16.5715 12.7972 16.4982 12.9821 16.3749C12.9995 16.363 13.017 16.3501 13.0335 16.3364L15.3001 14.4077C15.3225 14.3957 15.3472 14.3886 15.3726 14.387C15.3979 14.3855 15.4234 14.3894 15.4471 14.3985L19.7865 16.3428C19.8219 16.3579 19.8517 16.3837 19.8717 16.4167C19.8916 16.4497 19.9007 16.4881 19.8976 16.5265C19.7742 17.461 19.3147 18.3187 18.605 18.9392C17.8953 19.5596 16.9839 19.9004 16.0413 19.8979Z" fill="black"/>
</svg>
