<svg width="24" height="24" viewBox="0 0 24 24" fill="none" xmlns="http://www.w3.org/2000/svg">
<g clip-path="url(#clip0_1655_448)">
<path fill-rule="evenodd" clip-rule="evenodd" d="M15.7676 12.7437C15.7676 14.8187 14.0926 16.4937 12.0176 16.4937C9.94258 16.4937 8.26758 14.8187 8.26758 12.7437C8.26758 10.6687 9.94258 8.99365 12.0176 8.99365C14.0926 8.99365 15.7676 10.6687 15.7676 12.7437ZM14.5176 12.7437C14.5177 13.072 14.4531 13.3972 14.3275 13.7006C14.2019 14.0041 14.0178 14.2798 13.7856 14.512C13.3168 14.9811 12.6808 15.2447 12.0176 15.2449C11.6892 15.245 11.364 15.1804 11.0606 15.0548C10.7572 14.9292 10.4814 14.7451 10.2492 14.5129C9.78011 14.0441 9.51649 13.4081 9.51633 12.7449C9.51616 12.0817 9.77946 11.4456 10.2483 10.9765C10.7171 10.5074 11.3531 10.2438 12.0163 10.2437C12.6795 10.2435 13.3156 10.5068 13.7847 10.9756C14.2538 11.4445 14.5174 12.0804 14.5176 12.7437Z" fill="black"/>
<path fill-rule="evenodd" clip-rule="evenodd" d="M3.48 7.26875C4.29125 6.64625 5.3925 6.52376 7.3175 6.50001L8.14875 5.17501C8.37393 4.81472 8.68721 4.51777 9.05901 4.31218C9.43082 4.1066 9.84889 3.99915 10.2738 4.00001H13.7488C14.6113 4.00001 15.4112 4.44376 15.8737 5.17501L16.705 6.50001C18.63 6.52501 19.73 6.64625 20.5425 7.26875C20.8033 7.46959 21.0342 7.70042 21.235 7.96125C22.01 8.97125 22.01 10.4363 22.01 13.3738C22.01 16.3113 22.01 17.7738 21.235 18.7863C21.0342 19.0471 20.8033 19.2779 20.5425 19.4788C19.5325 20.2538 18.0675 20.2538 15.13 20.2538H8.88C5.9425 20.2538 4.48 20.2538 3.4675 19.4788C3.20739 19.2792 2.97457 19.0464 2.775 18.7863C2 17.7763 2 16.3113 2 13.3738C2 10.4363 2 8.97375 2.775 7.96125C2.97583 7.70042 3.20667 7.46959 3.4675 7.26875H3.48ZM15.6425 7.1625C15.8675 7.52375 16.2613 7.74501 16.6875 7.75001C18.675 7.77501 19.35 7.92875 19.7875 8.26125C19.9625 8.39459 20.1163 8.54834 20.2488 8.72251C20.4413 8.97251 20.5925 9.33751 20.6763 10.085C20.7638 10.8575 20.765 11.8725 20.765 13.3725C20.765 14.8725 20.7638 15.885 20.6763 16.66C20.5925 17.4075 20.4413 17.7713 20.2488 18.0225C20.1154 18.1975 19.9617 18.3513 19.7875 18.4838C19.5362 18.6763 19.1725 18.8275 18.425 18.9113C17.6525 18.9988 16.6375 19 15.1375 19H8.8875C7.3875 19 6.375 18.9975 5.6 18.9113C4.8525 18.8263 4.48875 18.6763 4.2375 18.4838C4.06419 18.3504 3.90911 18.1949 3.77625 18.0213C3.58375 17.7713 3.4325 17.4075 3.34875 16.6588C3.26125 15.8875 3.26 14.8713 3.26 13.3713C3.26 11.8713 3.26125 10.8588 3.34875 10.0838C3.4325 9.33751 3.58375 8.97375 3.77625 8.72125C3.90958 8.54792 4.06333 8.39459 4.2375 8.26125C4.67 7.93 5.34375 7.77376 7.3375 7.74876C7.54696 7.74623 7.75243 7.69111 7.93503 7.58845C8.11762 7.4858 8.27149 7.3389 8.3825 7.16125L9.21375 5.83626C9.32611 5.65647 9.48236 5.50822 9.66779 5.40545C9.85322 5.30268 10.0617 5.24875 10.2738 5.24875H13.7488C13.9608 5.24875 14.1693 5.30268 14.3547 5.40545C14.5401 5.50822 14.6964 5.65647 14.8088 5.83626L15.64 7.16125L15.6425 7.1625Z" fill="black"/>
</g>
<defs>
<clipPath id="clip0_1655_448">
<rect width="20" height="20" fill="white" transform="translate(2 2)"/>
</clipPath>
</defs>
</svg>
