<svg width="26" height="26" viewBox="0 0 26 26" fill="none" xmlns="http://www.w3.org/2000/svg">
<path d="M20.5167 15.6546L16.3563 13.5746C16.2745 13.5338 16.1833 13.5153 16.092 13.521C16.0006 13.5267 15.9125 13.5564 15.8363 13.6071L13.6729 15.0501C12.4837 14.4798 11.5247 13.5209 10.9544 12.3318L12.3975 10.1686C12.4482 10.0924 12.4779 10.0043 12.4836 9.91296C12.4893 9.82166 12.4708 9.73047 12.43 9.6486L10.3499 5.4886C10.3067 5.40177 10.2402 5.32873 10.1577 5.27773C10.0752 5.22673 9.98013 5.19981 9.88316 5.2C8.64185 5.2 7.45138 5.69307 6.57365 6.57074C5.69591 7.44841 5.20281 8.63879 5.20281 9.88C5.2059 12.7752 6.35748 15.551 8.40486 17.5982C10.4522 19.6454 13.2282 20.7969 16.1236 20.8C17.3649 20.8 18.5554 20.3069 19.4331 19.4293C20.3109 18.5516 20.804 17.3612 20.804 16.12C20.804 16.0234 20.7772 15.9287 20.7264 15.8465C20.6757 15.7643 20.603 15.6978 20.5167 15.6546ZM16.1236 19.76C13.5039 19.7572 10.9923 18.7154 9.13993 16.8632C7.28752 15.0109 6.24564 12.4995 6.24288 9.88C6.24273 8.96897 6.58423 8.09099 7.19995 7.41948C7.81567 6.74797 8.66084 6.33174 9.56853 6.253L11.3627 9.8423L9.93256 11.9925C9.88489 12.0634 9.85545 12.145 9.84683 12.2301C9.83822 12.3151 9.85069 12.4009 9.88316 12.48C10.5741 14.1225 11.8808 15.4291 13.5234 16.12C13.6026 16.1529 13.6886 16.1657 13.7739 16.1573C13.8592 16.1489 13.9411 16.1196 14.0123 16.0719L16.1626 14.6419L19.7522 16.4359C19.6731 17.3435 19.2565 18.1885 18.5847 18.8039C17.9129 19.4194 17.0347 19.7605 16.1236 19.76ZM13.0034 2.24596e-07C10.74 -0.000420409 8.51577 0.590003 6.55063 1.71287C4.58549 2.83573 2.94756 4.45213 1.79885 6.40218C0.650141 8.35223 0.0304564 10.5684 0.0010943 12.8314C-0.0282678 15.0944 0.53371 17.3258 1.63144 19.305L0.0843225 23.9447C-0.00734933 24.2196 -0.0206529 24.5145 0.0459027 24.7965C0.112458 25.0785 0.256243 25.3364 0.461141 25.5413C0.666039 25.7462 0.923952 25.89 1.20598 25.9565C1.488 26.0231 1.78298 26.0098 2.05787 25.9181L6.69792 24.3711C8.43361 25.3328 10.3664 25.8844 12.3483 25.9837C14.3301 26.083 16.3084 25.7274 18.1316 24.9441C19.9547 24.1608 21.5744 22.9705 22.8664 21.4646C24.1585 19.9586 25.0886 18.1769 25.5856 16.256C26.0826 14.3351 26.1333 12.3259 25.7337 10.3823C25.3341 8.43876 24.4949 6.61246 23.2804 5.04333C22.0659 3.4742 20.5083 2.20388 18.7269 1.3297C16.9456 0.455515 14.9877 0.000665645 13.0034 2.24596e-07ZM13.0034 24.96C10.9004 24.9606 8.83449 24.4069 7.01384 23.3545C6.93472 23.309 6.84512 23.2848 6.75382 23.2843C6.69766 23.2843 6.64187 23.2935 6.58871 23.3116L1.72895 24.9314C1.63732 24.962 1.53899 24.9664 1.44498 24.9442C1.35097 24.922 1.265 24.8741 1.1967 24.8058C1.1284 24.7375 1.08047 24.6515 1.05829 24.5575C1.0361 24.4635 1.04054 24.3652 1.0711 24.2736L2.69102 19.4142C2.71438 19.3443 2.72264 19.2703 2.71525 19.197C2.70785 19.1238 2.68497 19.0529 2.64811 18.9891C1.32943 16.7099 0.799837 14.0592 1.14149 11.4483C1.48315 8.83738 2.67696 6.41219 4.53772 4.54895C6.39848 2.68571 8.82217 1.48858 11.4328 1.14328C14.0434 0.79798 16.695 1.32381 18.9763 2.63919C21.2575 3.95457 23.0409 5.98597 24.0497 8.41826C25.0585 10.8505 25.2364 13.5477 24.5557 16.0914C23.875 18.6351 22.3739 20.8831 20.2851 22.4866C18.1964 24.0901 15.6368 24.9595 13.0034 24.96Z" fill="black"/>
</svg>
